<svg width="36" height="36" viewBox="0 0 36 36" fill="none" xmlns="http://www.w3.org/2000/svg">
<rect x="1.5" y="1.5" width="33" height="33" stroke="#534878" stroke-width="3"/>
<path d="M15.5455 26C14.927 26 15.0321 25.7528 14.8188 25.1293L13 18.7926L27 10" fill="#F5F3F8" fill-opacity="0.5"/>
<path d="M15.5 25.9999C16 25.9999 16.5 25.4999 16.5 25.4999L19.4702 23.4521L15.8415 21.54" fill="#B5BEBA"/>
<path d="M15.8351 21.5388L23.247 27.7412C24.0928 28.2698 24.7032 27.9961 24.9139 26.8518L27.931 10.7485C28.2398 9.34581 27.4589 8.70962 26.6497 9.12569L8.93382 16.863C7.72454 17.4124 7.73159 18.1766 8.71339 18.5171L11.5167 19.5081C12.6091 19.8942 13.8212 19.723 14.7639 19.0494L23.7849 12.6032C24.2818 12.2619 24.7378 12.4454 24.3635 12.8217" fill="#C2BCD2"/>
</svg>
