<svg width="36" height="36" viewBox="0 0 36 36" fill="none" xmlns="http://www.w3.org/2000/svg">
<rect x="1.5" y="1.5" width="33" height="33" stroke="#534878" stroke-width="3"/>
<path d="M10.232 12H7.8252C7.13754 12 7 12.3221 7 12.6773C7 13.3115 7.81596 16.4575 10.7993 20.6183C12.7881 23.4597 15.5903 25 18.1401 25C19.67 25 19.8592 24.6579 19.8592 24.0686V21.9211C19.8592 21.2368 20.0042 21.1003 20.4886 21.1003C20.8456 21.1003 21.4576 21.2779 22.8855 22.6479C24.5174 24.2716 24.7864 25 25.7043 25H28.1112C28.7988 25 29.1426 24.6579 28.9443 23.9828C28.7272 23.3099 27.9481 22.3337 26.9143 21.1764C26.3533 20.5168 25.5118 19.8064 25.2568 19.4512C24.8999 18.9946 25.0019 18.7915 25.2568 18.3857L25.2997 18.3252C25.6623 17.8124 28.211 14.176 28.4952 12.8803C28.6481 12.3729 28.4952 12 27.7673 12H25.3605C24.7485 12 24.4664 12.3221 24.3134 12.6773C24.3134 12.6773 23.0895 15.6456 21.3556 17.5738C20.7946 18.1319 20.5396 18.3095 20.2336 18.3095C20.0807 18.3095 19.8592 18.1319 19.8592 17.6245V12.8803C19.8592 12.2714 19.6816 12 19.1716 12H15.3895C15.007 12 14.777 12.2826 14.777 12.5504C14.777 13.1277 15.6439 13.2608 15.7333 14.8845V18.411C15.7333 19.1842 15.5929 19.3244 15.287 19.3244C14.471 19.3244 12.4863 16.3428 11.3092 12.931C11.0785 12.2679 10.8471 12 10.232 12Z" fill="#C2BCD2"/>
</svg>
